{
  "source": "C:\\Users\\Peter\\Desktop\\stuff\\MIUN\\quantitative_research\\video_compression\\videos\\BVI-HD\\BVI-HD_CDVL_videos\\ORIG\\Surfers_1920x1080_30fps.mp4",
  "output": "C:\\Users\\Peter\\Desktop\\stuff\\MIUN\\quantitative_research\\video_compression\\compressed_videos\\BVI-HD\\av1\\4\\Surfers_1920x1080_30fps_av1.mkv",
  "codec": "av1",
  "ok": "Input #0, mov,mp4,m4a,3gp,3g2,mj2, from 'C:\\Users\\Peter\\Desktop\\stuff\\MIUN\\quantitative_research\\video_compression\\videos\\BVI-HD\\BVI-HD_CDVL_videos\\ORIG\\Surfers_1920x1080_30fps.mp4':\n  Metadata:\n    major_brand     : isom\n    minor_version   : 512\n    compatible_brands: isomiso2avc1mp41\n    encoder         : Lavf54.28.101\n  Duration: 00:00:05.00, start: 0.000000, bitrate: 232762 kb/s\n  Stream #0:0[0x1](und): Video: h264 (High 4:4:4 Predictive) (avc1 / 0x31637661), yuv420p(progressive), 1920x1080, 232759 kb/s, 30 fps, 30 tbr, 30 tbn (default)\n    Metadata:\n      handler_name    : VideoHandler\n      vendor_id       : [0][0][0][0]\n[out#0/matroska @ 0000022fd0851200] Codec AVOption b:a (set bitrate (in bits/s)) has not been used for any stream. The most likely reason is either wrong type (e.g. a video option with no video streams) or that it is a private option of some decoder which was not actually used for any stream.\nStream mapping:\n  Stream #0:0 -> #0:0 (h264 (native) -> av1 (libsvtav1))\nPress [q] to stop, [?] for help\nSvt[info]: -------------------------------------------\nSvt[info]: SVT [version]:\tSVT-AV1 Encoder Lib v3.1.0-19-g6ecfe8ec\nSvt[info]: SVT [build]  :\tGCC 15.2.0\t 64 bit\nSvt[info]: LIB Build date: Aug 17 2025 11:37:13\nSvt[info]: -------------------------------------------\nSvt[info]: Level of Parallelism: 5\nSvt[info]: Number of PPCS 93\nSvt[info]: [asm level on system : up to avx2]\nSvt[info]: [asm level selected : up to avx2]\nSvt[info]: -------------------------------------------\nSvt[info]: SVT [config]: main profile\ttier (auto)\tlevel (auto)\nSvt[info]: SVT [config]: width / height / fps numerator / fps denominator \t\t: 1920 / 1080 / 30 / 1\nSvt[info]: SVT [config]: bit-depth / color format \t\t\t\t\t: 8 / YUV420\nSvt[info]: SVT [config]: preset / tune / pred struct \t\t\t\t\t: 4 / PSNR / random access\nSvt[info]: SVT [config]: gop size / mini-gop size / key-frame type \t\t\t: 161 / 16 / key frame\nSvt[info]: SVT [config]: BRC mode / target bitrate (kbps)\t\t\t\t: VBR / 4000 \nSvt[info]: SVT [config]: AQ mode / Variance Boost \t\t\t\t\t: 2 / 0\nSvt[info]: SVT [config]: sharpness / luminance-based QP bias \t\t\t\t: 0 / 0\nSvt[info]: SVT [config]: QP scale compress strength \t\t\t\t\t: 0\nSvt[info]: -------------------------------------------\nOutput #0, matroska, to 'C:\\Users\\Peter\\Desktop\\stuff\\MIUN\\quantitative_research\\video_compression\\compressed_videos\\BVI-HD\\av1\\4\\Surfers_1920x1080_30fps_av1.mkv':\n  Metadata:\n    major_brand     : isom\n    minor_version   : 512\n    compatible_brands: isomiso2avc1mp41\n    encoder         : Lavf62.3.100\n  Stream #0:0(und): Video: av1 (AV01 / 0x31305641), yuv420p(tv, progressive), 1920x1080, q=2-31, 4000 kb/s, 30 fps, 1k tbn (default)\n    Metadata:\n      encoder         : Lavc62.11.100 libsvtav1\n      handler_name    : VideoHandler\n      vendor_id       : [0][0][0][0]\n    Side data:\n      cpb: bitrate max/min/avg: 0/0/4000000 buffer size: 4000000 vbv_delay: N/A\nframe=    0 fps=0.0 q=0.0 size=       0KiB time=N/A bitrate=N/A speed=N/A elapsed=0:00:01.03    \nframe=    0 fps=0.0 q=0.0 size=       0KiB time=N/A bitrate=N/A speed=N/A elapsed=0:00:01.59    \nframe=    0 fps=0.0 q=0.0 size=       0KiB time=N/A bitrate=N/A speed=N/A elapsed=0:00:02.14    \nframe=    0 fps=0.0 q=0.0 size=       0KiB time=N/A bitrate=N/A speed=N/A elapsed=0:00:02.64    \nframe=    1 fps=0.3 q=18.0 size=       1KiB time=00:00:00.00 bitrate=N/A speed=   0x elapsed=0:00:03.17    \nframe=    1 fps=0.3 q=18.0 size=       1KiB time=00:00:00.00 bitrate=N/A speed=   0x elapsed=0:00:03.69    \nframe=    2 fps=0.5 q=36.0 size=       1KiB time=00:00:00.03 bitrate= 171.1kbits/s speed=0.00789x elapsed=0:00:04.22    \nframe=    4 fps=0.8 q=36.0 size=       1KiB time=00:00:00.10 bitrate=  57.0kbits/s speed=0.021x elapsed=0:00:04.75    \nframe=    6 fps=1.1 q=36.0 size=       1KiB time=00:00:00.16 bitrate=  34.2kbits/s speed=0.0316x elapsed=0:00:05.26    \nframe=    7 fps=1.2 q=32.0 size=       1KiB time=00:00:00.20 bitrate=  28.5kbits/s speed=0.0345x elapsed=0:00:05.79    \nframe=    9 fps=1.4 q=30.0 size=       1KiB time=00:00:00.26 bitrate=  21.4kbits/s speed=0.0419x elapsed=0:00:06.36    \nframe=   12 fps=1.7 q=32.0 size=       1KiB time=00:00:00.33 bitrate=  17.1kbits/s speed=0.0477x elapsed=0:00:06.98    \nframe=   12 fps=1.6 q=32.0 size=       1KiB time=00:00:00.36 bitrate=  15.6kbits/s speed=0.0485x elapsed=0:00:07.56    \nframe=   14 fps=1.7 q=31.0 size=       1KiB time=00:00:00.43 bitrate=  13.2kbits/s speed=0.0535x elapsed=0:00:08.10    \nframe=   16 fps=1.8 q=30.0 size=       1KiB time=00:00:00.50 bitrate=  11.4kbits/s speed=0.0575x elapsed=0:00:08.69    \nframe=   18 fps=1.9 q=35.0 size=       1KiB time=00:00:00.56 bitrate=  10.1kbits/s speed=0.0613x elapsed=0:00:09.24    \nframe=   20 fps=2.0 q=33.0 size=       1KiB time=00:00:00.63 bitrate=   9.0kbits/s speed=0.0647x elapsed=0:00:09.79    \nframe=   22 fps=2.1 q=33.0 size=       1KiB time=00:00:00.70 bitrate=   8.1kbits/s speed=0.0676x elapsed=0:00:10.34    \nframe=   23 fps=2.1 q=31.0 size=       1KiB time=00:00:00.73 bitrate=   7.8kbits/s speed=0.0672x elapsed=0:00:10.91    \nframe=   25 fps=2.2 q=29.0 size=       1KiB time=00:00:00.80 bitrate=   7.1kbits/s speed=0.0698x elapsed=0:00:11.46    \nframe=   27 fps=2.2 q=32.0 size=       1KiB time=00:00:00.86 bitrate=   6.6kbits/s speed=0.0722x elapsed=0:00:12.01    \nframe=   30 fps=2.4 q=35.0 size=       1KiB time=00:00:00.96 bitrate=   5.9kbits/s speed=0.0768x elapsed=0:00:12.58    \nframe=   33 fps=2.5 q=24.0 size=       1KiB time=00:00:01.06 bitrate=   5.3kbits/s speed=0.0812x elapsed=0:00:13.13    \nframe=   35 fps=2.6 q=33.0 size=       1KiB time=00:00:01.13 bitrate=   5.0kbits/s speed=0.0829x elapsed=0:00:13.66    \nframe=   37 fps=2.6 q=30.0 size=       1KiB time=00:00:01.20 bitrate=   4.8kbits/s speed=0.0845x elapsed=0:00:14.20    \nframe=   39 fps=2.6 q=33.0 size=       1KiB time=00:00:01.26 bitrate=   4.5kbits/s speed=0.086x elapsed=0:00:14.72    \nframe=   42 fps=2.7 q=36.0 size=       1KiB time=00:00:01.36 bitrate=   4.2kbits/s speed=0.0894x elapsed=0:00:15.28    \nframe=   46 fps=2.9 q=38.0 size=       1KiB time=00:00:01.50 bitrate=   3.8kbits/s speed=0.0949x elapsed=0:00:15.81    \nframe=   49 fps=3.0 q=21.0 size=       1KiB time=00:00:01.60 bitrate=   3.6kbits/s speed=0.0979x elapsed=0:00:16.34    \nframe=   52 fps=3.1 q=38.0 size=       1KiB time=00:00:01.70 bitrate=   3.4kbits/s speed=0.101x elapsed=0:00:16.85    \nframe=   57 fps=3.3 q=30.0 size=       1KiB time=00:00:01.86 bitrate=   3.1kbits/s speed=0.107x elapsed=0:00:17.37    \nframe=   57 fps=3.2 q=30.0 size=       1KiB time=00:00:01.86 bitrate=   3.1kbits/s speed=0.104x elapsed=0:00:17.90    \nframe=   61 fps=3.3 q=32.0 size=       1KiB time=00:00:02.00 bitrate=   2.9kbits/s speed=0.109x elapsed=0:00:18.42    \nframe=   65 fps=3.4 q=24.0 size=       1KiB time=00:00:02.13 bitrate=   2.7kbits/s speed=0.113x elapsed=0:00:18.93    \nframe=   69 fps=3.5 q=36.0 size=       1KiB time=00:00:02.26 bitrate=   2.5kbits/s speed=0.117x elapsed=0:00:19.44    \nframe=   73 fps=3.7 q=32.0 size=       1KiB time=00:00:02.40 bitrate=   2.4kbits/s speed=0.12x elapsed=0:00:19.96    \nframe=   75 fps=3.7 q=36.0 size=       1KiB time=00:00:02.46 bitrate=   2.3kbits/s speed=0.12x elapsed=0:00:20.48    \nframe=   79 fps=3.8 q=37.0 size=       1KiB time=00:00:02.60 bitrate=   2.2kbits/s speed=0.124x elapsed=0:00:21.02    \nframe=   85 fps=3.9 q=37.0 size=       1KiB time=00:00:02.80 bitrate=   2.0kbits/s speed=0.13x elapsed=0:00:21.54    \nframe=   89 fps=4.0 q=33.0 size=       1KiB time=00:00:02.93 bitrate=   1.9kbits/s speed=0.133x elapsed=0:00:22.05    \nframe=   89 fps=3.9 q=33.0 size=       1KiB time=00:00:02.93 bitrate=   1.9kbits/s speed=0.13x elapsed=0:00:22.57    \nframe=   93 fps=4.0 q=34.0 size=       1KiB time=00:00:03.06 bitrate=   1.9kbits/s speed=0.133x elapsed=0:00:23.09    \nframe=   97 fps=4.1 q=27.0 size=       1KiB time=00:00:03.20 bitrate=   1.8kbits/s speed=0.135x elapsed=0:00:23.61    \nframe=  101 fps=4.2 q=37.0 size=       1KiB time=00:00:03.33 bitrate=   1.7kbits/s speed=0.138x elapsed=0:00:24.14    \nframe=  105 fps=4.3 q=34.0 size=       1KiB time=00:00:03.46 bitrate=   1.6kbits/s speed=0.14x elapsed=0:00:24.67    \nframe=  107 fps=4.2 q=38.0 size=       1KiB time=00:00:03.46 bitrate=   1.6kbits/s speed=0.137x elapsed=0:00:25.21    \nframe=  109 fps=4.2 q=35.0 size=       1KiB time=00:00:03.60 bitrate=   1.6kbits/s speed=0.14x elapsed=0:00:25.75    \nframe=  113 fps=4.3 q=27.0 size=       1KiB time=00:00:03.73 bitrate=   1.5kbits/s speed=0.142x elapsed=0:00:26.27    \nframe=  117 fps=4.4 q=34.0 size=       1KiB time=00:00:03.86 bitrate=   1.5kbits/s speed=0.144x elapsed=0:00:26.79    \nframe=  121 fps=4.4 q=35.0 size=       1KiB time=00:00:04.00 bitrate=   1.4kbits/s speed=0.146x elapsed=0:00:27.30    \nframe=  123 fps=4.4 q=38.0 size=       1KiB time=00:00:04.06 bitrate=   1.4kbits/s speed=0.146x elapsed=0:00:27.82    \nframe=  125 fps=4.4 q=36.0 size=       1KiB time=00:00:04.13 bitrate=   1.4kbits/s speed=0.146x elapsed=0:00:28.34    \nframe=  129 fps=4.5 q=29.0 size=       1KiB time=00:00:04.26 bitrate=   1.3kbits/s speed=0.148x elapsed=0:00:28.85    \nframe=  133 fps=4.5 q=39.0 size=       1KiB time=00:00:04.40 bitrate=   1.3kbits/s speed=0.15x elapsed=0:00:29.37    \nframe=  137 fps=4.6 q=36.0 size=       1KiB time=00:00:04.53 bitrate=   1.3kbits/s speed=0.152x elapsed=0:00:29.89    \nframe=  139 fps=4.6 q=39.0 size=       1KiB time=00:00:04.60 bitrate=   1.2kbits/s speed=0.151x elapsed=0:00:30.41    \nframe=  143 fps=4.6 q=39.0 size=       1KiB time=00:00:04.73 bitrate=   1.2kbits/s speed=0.153x elapsed=0:00:30.92    \n[out#0/matroska @ 0000022fd0851200] video:2705KiB audio:0KiB subtitle:0KiB other streams:0KiB global headers:0KiB muxing overhead: 0.053283%\nframe=  150 fps=4.8 q=39.0 Lsize=    2707KiB time=00:00:04.96 bitrate=4464.3kbits/s speed=0.16x elapsed=0:00:30.96    \n",
  "seconds": 31.39073896408081,
  "probe_out": {}
}